<?xml version="1.0" encoding="UTF-8"?>
<svg version="1.1" xmlns="http://www.w3.org/2000/svg" width="124" height="125">
<path d="M0 0 C1.31291016 0.54333984 1.31291016 0.54333984 2.65234375 1.09765625 C17.79134047 7.9790184 29.26849732 20.81543029 35.19702148 36.2409668 C40.27176111 50.81097005 40.3954081 68.88076076 34 83 C33.51402344 84.0828125 33.02804688 85.165625 32.52734375 86.28125 C24.95908765 101.59668079 12.89487719 112.49985413 -3.0625 118.5 C-19.84996235 124.08719856 -37.81694079 122.00388821 -53.5 114.4375 C-55.00642877 113.63698229 -56.50756773 112.82631843 -58 112 C-58.886875 111.525625 -59.77375 111.05125 -60.6875 110.5625 C-64.02364183 108.30835012 -67.02436986 105.70768241 -70 103 C-70.50402344 102.55011719 -71.00804688 102.10023437 -71.52734375 101.63671875 C-74.79544119 98.00453618 -76.74521805 93.30188662 -79 89 C-79.38671875 88.30261719 -79.7734375 87.60523437 -80.171875 86.88671875 C-84.98286034 77.94938829 -86.54547865 68.68997026 -86.4375 58.625 C-86.42920166 57.61840332 -86.42090332 56.61180664 -86.41235352 55.57470703 C-86.23675061 47.82443203 -85.22330138 41.11613123 -82 34 C-81.51402344 32.9171875 -81.02804688 31.834375 -80.52734375 30.71875 C-72.95908765 15.40331921 -60.89487719 4.50014587 -44.9375 -1.5 C-30.82800726 -6.19591746 -13.65081382 -5.92247257 0 0 Z " fill="#CE1B1B" transform="translate(86,4)"/>
<path d="M0 0 C0 4 0 4 -1.3125 5.703125 C-1.869375 6.21359375 -2.42625 6.7240625 -3 7.25 C-3.556875 7.77078125 -4.11375 8.2915625 -4.6875 8.828125 C-5.120625 9.21484375 -5.55375 9.6015625 -6 10 C-10.07333228 8.67616701 -14.0780601 7.23079197 -18.0703125 5.68359375 C-27.86714771 2.21305496 -38.00811817 3.10242445 -47.3125 7.51953125 C-54.6680462 11.57149638 -59.2346787 16.09028411 -64 23 C-60.7 23 -57.4 23 -54 23 C-53.34 21.68 -52.68 20.36 -52 19 C-49.90625 17.296875 -49.90625 17.296875 -47.5 15.75 C-46.7059375 15.22921875 -45.911875 14.7084375 -45.09375 14.171875 C-43 13 -43 13 -41 13 C-41.99 16.3 -42.98 19.6 -44 23 C-41.36 23 -38.72 23 -36 23 C-35.80664062 22.38511719 -35.61328125 21.77023438 -35.4140625 21.13671875 C-35.15367188 20.32847656 -34.89328125 19.52023438 -34.625 18.6875 C-34.24214844 17.48673828 -34.24214844 17.48673828 -33.8515625 16.26171875 C-33 14 -33 14 -31 11 C-28 12 -28 12 -26.83203125 13.99609375 C-26.49558594 14.80175781 -26.15914062 15.60742188 -25.8125 16.4375 C-25.46832031 17.24058594 -25.12414062 18.04367188 -24.76953125 18.87109375 C-24 21 -24 21 -24 23 C-22.68 23.33 -21.36 23.66 -20 24 C-25.91684902 30.86214442 -25.91684902 30.86214442 -30.4375 31.4375 C-31.283125 31.293125 -32.12875 31.14875 -33 31 C-33.185625 32.7015625 -33.185625 32.7015625 -33.375 34.4375 C-33.58125 35.613125 -33.7875 36.78875 -34 38 C-34.99 38.495 -34.99 38.495 -36 39 C-36.495 35.04 -36.495 35.04 -37 31 C-38.98 31 -40.96 31 -43 31 C-42.855625 31.59167969 -42.71125 32.18335938 -42.5625 32.79296875 C-42.2840625 33.97826172 -42.2840625 33.97826172 -42 35.1875 C-41.814375 35.96480469 -41.62875 36.74210937 -41.4375 37.54296875 C-40.96032811 40.22280019 -40.6316826 42.29053866 -41 45 C-42.93359375 47.45703125 -42.93359375 47.45703125 -45.4375 49.8125 C-46.26121094 50.60269531 -47.08492187 51.39289063 -47.93359375 52.20703125 C-50 54 -50 54 -51 54 C-50.54593375 46.04601192 -49.12888539 38.67202093 -47 31 C-48.98 31 -50.96 31 -53 31 C-53.33 34.63 -53.66 38.26 -54 42 C-54.66 42 -55.32 42 -56 42 C-57.19287411 38.12315913 -58 35.08378077 -58 31 C-59.65 31 -61.3 31 -63 31 C-63.66 35.29 -64.32 39.58 -65 44 C-66.73684533 40.52630934 -67.30084112 38.92380063 -67.625 35.25 C-67.69976562 34.45078125 -67.77453125 33.6515625 -67.8515625 32.828125 C-67.92503906 31.92320313 -67.92503906 31.92320313 -68 31 C-69.98 31 -71.96 31 -74 31 C-73.80664062 31.64324219 -73.61328125 32.28648438 -73.4140625 32.94921875 C-71.31419091 40.23639688 -70.01496373 47.48926837 -69 55 C-67.35 55 -65.7 55 -64 55 C-63.01 50.71 -62.02 46.42 -61 42 C-58.37548383 44.62451617 -58.4167132 46.4877828 -57.875 50.125 C-57.70742188 51.22070312 -57.53984375 52.31640625 -57.3671875 53.4453125 C-57.24601562 54.28835937 -57.12484375 55.13140625 -57 56 C-56.34 56 -55.68 56 -55 56 C-56.20381448 58.49361571 -57.45428722 60.68143083 -59 63 C-61.625 63.1875 -61.625 63.1875 -64 63 C-64.0928125 64.0828125 -64.0928125 64.0828125 -64.1875 65.1875 C-65.24456647 68.84657625 -67.20550071 70.49211602 -70 73 C-72.72177525 71.98294598 -73.83921753 71.26235326 -75.37890625 68.75 C-76.62810659 65.84756753 -77.84502372 62.94133958 -79 60 C-79.32484375 59.20078125 -79.6496875 58.4015625 -79.984375 57.578125 C-84.56330232 44.70529158 -82.22217146 31.7637715 -76.9375 19.54296875 C-69.43917259 4.67649323 -56.50474846 -3.51733139 -41.140625 -8.6171875 C-26.46219026 -11.24216305 -12.50525196 -7.88444827 0 0 Z " fill="#818CB3" transform="translate(92,20)"/>
<path d="M0 0 C7.99361113 7.99361113 11.12143886 18.10970776 11.375 29.3125 C11.01197296 44.33274393 6.61830558 56.88941733 -3.734375 67.93359375 C-15.35711374 78.53433305 -29.44380592 83.57561976 -45.0625 82.875 C-55.13888205 81.92062901 -63.41050063 78.17490826 -72 73 C-71.06725891 71.87105124 -70.12859878 70.74699124 -69.1875 69.625 C-68.66542969 68.99851562 -68.14335938 68.37203125 -67.60546875 67.7265625 C-66 66 -66 66 -63 64 C-62.49210937 64.26554687 -61.98421875 64.53109375 -61.4609375 64.8046875 C-60.77257813 65.15789062 -60.08421875 65.51109375 -59.375 65.875 C-58.70210937 66.22304687 -58.02921875 66.57109375 -57.3359375 66.9296875 C-47.86453304 71.26942801 -37.21616574 71.51083848 -27.37109375 68.03515625 C-19.01270291 64.38610588 -11.20513014 59.41026028 -7 51 C-13.95292329 51.05845419 -13.95292329 51.05845419 -19.8125 54.375 C-20.534375 55.24125 -21.25625 56.1075 -22 57 C-26.44827586 60 -26.44827586 60 -29 60 C-28.125 53.25 -28.125 53.25 -27 51 C-29.64 51 -32.28 51 -35 51 C-35.29003906 51.92232422 -35.29003906 51.92232422 -35.5859375 52.86328125 C-35.84632812 53.67152344 -36.10671875 54.47976562 -36.375 55.3125 C-36.75785156 56.51326172 -36.75785156 56.51326172 -37.1484375 57.73828125 C-38 60 -38 60 -40 63 C-43 62 -43 62 -44.16796875 60.00390625 C-44.50441406 59.19824219 -44.84085938 58.39257812 -45.1875 57.5625 C-45.53167969 56.75941406 -45.87585938 55.95632812 -46.23046875 55.12890625 C-47 53 -47 53 -47 51 C-48.485 50.505 -48.485 50.505 -50 50 C-46.37 46.37 -42.74 42.74 -39 39 C-38.505 40.98 -38.505 40.98 -38 43 C-36.02 43 -34.04 43 -32 43 C-31.96261719 42.33613281 -31.92523438 41.67226562 -31.88671875 40.98828125 C-31.20990485 31.8977416 -31.20990485 31.8977416 -28 28 C-25.3125 25.6875 -25.3125 25.6875 -23 24 C-22.51779737 25.87422152 -22.03938167 27.74941754 -21.5625 29.625 C-21.29566406 30.66914062 -21.02882812 31.71328125 -20.75390625 32.7890625 C-20.03547461 35.84891124 -19.48023284 38.8948051 -19 42 C-17.35 42 -15.7 42 -14 42 C-12.515 36.06 -12.515 36.06 -11 30 C-9.4005386 33.19892281 -8.57404764 35.35462576 -7.875 38.75 C-7.70742187 39.54921875 -7.53984375 40.3484375 -7.3671875 41.171875 C-7.18542969 42.07679687 -7.18542969 42.07679687 -7 43 C-5.35 43 -3.7 43 -2 43 C-1.80664062 41.77023438 -1.61328125 40.54046875 -1.4140625 39.2734375 C-1.15130426 37.64058272 -0.88826875 36.00777254 -0.625 34.375 C-0.49867187 33.56675781 -0.37234375 32.75851563 -0.2421875 31.92578125 C0.48653772 27.44412116 1.40889128 23.27523996 3 19 C1.02 19 -0.96 19 -3 19 C-3.66 23.29 -4.32 27.58 -5 32 C-5.33 32 -5.66 32 -6 32 C-6.66 27.71 -7.32 23.42 -8 19 C-9.65 19 -11.3 19 -13 19 C-13.66 22.3 -14.32 25.6 -15 29 C-15.66 28.67 -16.32 28.34 -17 28 C-18.08753855 24.64085727 -18.39178382 21.50543416 -18 18 C-16.16206194 15.00014707 -14.01556322 12.81776466 -11 11 C-9.68 11 -8.36 11 -7 11 C-7.495 9.515 -7.495 9.515 -8 8 C-5.36 5.36 -2.72 2.72 0 0 Z " fill="#AB666C" transform="translate(103,32)"/>
<path d="M0 0 C2.43694111 1.22505688 4.68835002 2.54265544 7 4 C5.35 5.98 3.7 7.96 2 10 C-2.75 8.125 -2.75 8.125 -5 7 C-4.649375 7.556875 -4.29875 8.11375 -3.9375 8.6875 C-2.77327415 11.55925711 -3.1293153 13.07133328 -4 16 C-4.495 16.495 -4.495 16.495 -5 17 C-6.65 17 -8.3 17 -10 17 C-11.65 13.37 -13.3 9.74 -15 6 C-15.66 6 -16.32 6 -17 6 C-18.65 9.63 -20.3 13.26 -22 17 C-24.64 17 -27.28 17 -30 17 C-29.48792856 13.24480943 -28.7824918 10.33311475 -27 7 C-28.79639296 8.09646058 -30.58697154 9.20245148 -32.375 10.3125 C-33.37273438 10.92738281 -34.37046875 11.54226562 -35.3984375 12.17578125 C-38.19826812 13.90437775 -38.19826812 13.90437775 -40 17 C-42.3828125 17.29296875 -42.3828125 17.29296875 -45.125 17.1875 C-46.03507812 17.16042969 -46.94515625 17.13335937 -47.8828125 17.10546875 C-48.58148438 17.07066406 -49.28015625 17.03585938 -50 17 C-48.54344387 11.65929419 -45.29575862 8.29155531 -41 5 C-27.72139172 -2.5365074 -14.83373687 -6.29709256 0 0 Z " fill="#040406" transform="translate(78,26)"/>
<path d="M0 0 C2.475 5.445 2.475 5.445 5 11 C5.66 11 6.32 11 7 11 C8.65 7.37 10.3 3.74 12 0 C14.64 0 17.28 0 20 0 C19.34 2.97 18.68 5.94 18 9 C19.258125 8.195625 20.51625 7.39125 21.8125 6.5625 C24.26759581 4.99284858 26.21255223 3.92914926 29 3 C29.33 2.01 29.66 1.02 30 0 C33.3 0 36.6 0 40 0 C35.1346239 9.7307522 27.95339113 14.75626401 18.0078125 18.8125 C6.85635723 22.25844326 -3.86228195 20.18792618 -14 15 C-14.66 14.67 -15.32 14.34 -16 14 C-14.60667426 10.63279613 -13.0210714 9.0140476 -10 7 C-8.35 7.99 -6.7 8.98 -5 10 C-5.66 7.69 -6.32 5.38 -7 3 C-4.49955934 -0.00052879 -4.2621484 0 0 0 Z " fill="#060303" transform="translate(56,83)"/>
<path d="M0 0 C1.98 0 3.96 0 6 0 C6.66 2.97 7.32 5.94 8 9 C8.99 6.03 9.98 3.06 11 0 C12.65 0 14.3 0 16 0 C16.66 3.63 17.32 7.26 18 11 C18.66 11 19.32 11 20 11 C20.33 7.37 20.66 3.74 21 0 C22.98 0 24.96 0 27 0 C26.26990593 5.33748381 25.38713289 10.63500441 24.4375 15.9375 C24.29892578 16.71673828 24.16035156 17.49597656 24.01757812 18.29882812 C23.67943843 20.1994064 23.3398683 22.09973008 23 24 C21.02 24 19.04 24 17 24 C15.38935371 20.34920174 14.55105909 16.9492568 14 13 C13.79503906 13.62648438 13.59007812 14.25296875 13.37890625 14.8984375 C13.10949219 15.71570313 12.84007812 16.53296875 12.5625 17.375 C12.29566406 18.18710938 12.02882813 18.99921875 11.75390625 19.8359375 C11 22 11 22 10 24 C8.35 24 6.7 24 5 24 C4.1631665 20.37579876 3.33112766 16.75051363 2.5 13.125 C2.26152344 12.09246094 2.02304687 11.05992188 1.77734375 9.99609375 C1.55175781 9.00996094 1.32617188 8.02382813 1.09375 7.0078125 C0.88427734 6.09660645 0.67480469 5.18540039 0.45898438 4.24658203 C0 2 0 2 0 0 Z " fill="#070607" transform="translate(18,51)"/>
<path d="M0 0 C1.64826111 2.96687001 2.44271087 5.65626525 3 9 C3.99 6.03 4.98 3.06 6 0 C7.65 0 9.3 0 11 0 C11.99 2.97 12.98 5.94 14 9 C14.66 6.03 15.32 3.06 16 0 C17.98 0 19.96 0 22 0 C20.62469483 8.07385038 18.89968355 16.03399365 17 24 C15.35 24 13.7 24 12 24 C10.68 20.37 9.36 16.74 8 13 C7.690625 14.629375 7.38125 16.25875 7.0625 17.9375 C6.125 22.875 6.125 22.875 5 24 C3.33382885 24.04063832 1.66611905 24.042721 0 24 C-1.46503807 19.50024021 -2.49516622 14.96304999 -3.375 10.3125 C-3.58898437 9.21550781 -3.80296875 8.11851563 -4.0234375 6.98828125 C-4 4 -4 4 -2.0390625 1.60546875 C-1.36617188 1.07566406 -0.69328125 0.54585937 0 0 Z " fill="#080608" transform="translate(84,51)"/>
<path d="M0 0 C1.32 0 2.64 0 4 0 C4.34019152 1.39417773 4.67181779 2.79044658 5 4.1875 C5.185625 4.96480469 5.37125 5.74210937 5.5625 6.54296875 C6.03967189 9.22280019 6.3683174 11.29053866 6 14 C4.06640625 16.45703125 4.06640625 16.45703125 1.5625 18.8125 C0.73878906 19.60269531 -0.08492187 20.39289063 -0.93359375 21.20703125 C-3 23 -3 23 -4 23 C-3.54593375 15.04601192 -2.12888539 7.67202093 0 0 Z " fill="#90748A" transform="translate(45,51)"/>
<path d="M0 0 C1.98 0 3.96 0 6 0 C6.65273326 3.02454618 7.1493847 5.90026751 7 9 C4.5625 11.5625 4.5625 11.5625 2 13 C0.54815522 8.46298506 -0.23509196 4.81938524 0 0 Z " fill="#0D0A0C" transform="translate(49,51)"/>
<path d="M0 0 C1.3609623 2.7219246 0.70366248 4.1831957 0.0625 7.125 C-0.13214844 8.03507812 -0.32679687 8.94515625 -0.52734375 9.8828125 C-0.68332031 10.58148438 -0.83929688 11.28015625 -1 12 C-2.98 12 -4.96 12 -7 12 C-7.4375 9.9375 -7.4375 9.9375 -7 7 C-4.87919817 4.42739828 -2.49372439 2.20745501 0 0 Z " fill="#060404" transform="translate(72,63)"/>
<path d="M0 0 C0.66 0 1.32 0 2 0 C2 0.66 2 1.32 2 2 C2.66 2 3.32 2 4 2 C4.33 1.34 4.66 0.68 5 0 C4.67 2.97 4.34 5.94 4 9 C3.34 9 2.68 9 2 9 C1.34 6.03 0.68 3.06 0 0 Z " fill="#716378" transform="translate(34,53)"/>
<path d="M0 0 C0.66 0.66 1.32 1.32 2 2 C1.65561395 6.13263259 -0.06429969 9.38108204 -2 13 C-3.45047396 10.09905209 -2.45356803 8.44027404 -1.5625 5.375 C-1.27503906 4.37210937 -0.98757812 3.36921875 -0.69140625 2.3359375 C-0.46324219 1.56507812 -0.23507813 0.79421875 0 0 Z " fill="#805F6D" transform="translate(31,62)"/>
<path d="M0 0 C0.99 0.33 1.98 0.66 3 1 C2.67 4.3 2.34 7.6 2 11 C-0.10814567 6.78370866 -0.17700355 4.60209225 0 0 Z " fill="#817188" transform="translate(25,53)"/>
<path d="M0 0 C2.475 0.99 2.475 0.99 5 2 C5 2.99 5 3.98 5 5 C4.01 5.66 3.02 6.32 2 7 C1.34 4.69 0.68 2.38 0 0 Z " fill="#6D7EA4" transform="translate(73,33)"/>
<path d="M0 0 C0.66 0.33 1.32 0.66 2 1 C2.625 3.5625 2.625 3.5625 3 6 C0.525 5.01 0.525 5.01 -2 4 C-1.34 2.68 -0.68 1.36 0 0 Z " fill="#914D4B" transform="translate(48,87)"/>
<path d="M0 0 C0.33 0 0.66 0 1 0 C1.16702456 4.34263862 1.12999997 7.20960634 -1 11 C-1.22174933 9.54364629 -1.42698698 8.08477044 -1.625 6.625 C-1.74101563 5.81289063 -1.85703125 5.00078125 -1.9765625 4.1640625 C-1.98429687 3.44992188 -1.99203125 2.73578125 -2 2 C-1.34 1.34 -0.68 0.68 0 0 Z " fill="#7F6F86" transform="translate(98,53)"/>
<path d="M0 0 C1.65 0 3.3 0 5 0 C3.35 1.98 1.7 3.96 0 6 C-1.24546405 3.50907189 -0.7767578 2.58919267 0 0 Z " fill="#20161B" transform="translate(59,51)"/>
</svg>
